<mxGraphModel><root><mxCell id="0"/><mxCell id="1" parent="0"/><mxCell id="2" value="Определение целевой аудитории" style="whiteSpace=wrap;strokeWidth=2;" vertex="1" parent="1"><mxGeometry x="55" width="263" height="34" as="geometry"/></mxCell><mxCell id="3" value="Анализ конкурентов" style="whiteSpace=wrap;strokeWidth=2;" vertex="1" parent="1"><mxGeometry x="104" y="84" width="165" height="34" as="geometry"/></mxCell><mxCell id="4" value="Формулировка уникального предложения" style="whiteSpace=wrap;strokeWidth=2;" vertex="1" parent="1"><mxGeometry x="23" y="167" width="326" height="34" as="geometry"/></mxCell><mxCell id="5" value="Выбор маркетинговых каналов" style="whiteSpace=wrap;strokeWidth=2;" vertex="1" parent="1"><mxGeometry x="65" y="251" width="244" height="34" as="geometry"/></mxCell><mxCell id="6" value="Разработка бюджета и распределение ресурсов" style="whiteSpace=wrap;strokeWidth=2;" vertex="1" parent="1"><mxGeometry y="334" width="373" height="34" as="geometry"/></mxCell><mxCell id="7" value="Определение KPI" style="whiteSpace=wrap;strokeWidth=2;" vertex="1" parent="1"><mxGeometry x="115" y="418" width="142" height="34" as="geometry"/></mxCell><mxCell id="8" value="Мониторинг и анализ результатов" style="whiteSpace=wrap;strokeWidth=2;" vertex="1" parent="1"><mxGeometry x="53" y="501" width="267" height="34" as="geometry"/></mxCell><mxCell id="9" value="Корректировка стратегии" style="whiteSpace=wrap;strokeWidth=2;" vertex="1" parent="1"><mxGeometry x="84" y="585" width="205" height="34" as="geometry"/></mxCell><mxCell id="10" value="" style="curved=1;startArrow=none;endArrow=block;exitX=0.5001336739543726;exitY=0.9852941176470589;entryX=0.5002130681818182;entryY=-0.014705882352941176;" edge="1" parent="1" source="2" target="3"><mxGeometry relative="1" as="geometry"><Array as="points"/></mxGeometry></mxCell><mxCell id="11" value="" style="curved=1;startArrow=none;endArrow=block;exitX=0.5002130681818182;exitY=0.9705882352941176;entryX=0.501641583588957;entryY=0;" edge="1" parent="1" source="3" target="4"><mxGeometry relative="1" as="geometry"><Array as="points"/></mxGeometry></mxCell><mxCell id="12" value="" style="curved=1;startArrow=none;endArrow=block;exitX=0.501641583588957;exitY=0.9852941176470589;entryX=0.4980949026639344;entryY=-0.014705882352941176;" edge="1" parent="1" source="4" target="5"><mxGeometry relative="1" as="geometry"><Array as="points"/></mxGeometry></mxCell><mxCell id="13" value="" style="curved=1;startArrow=none;endArrow=block;exitX=0.4980949026639344;exitY=0.9705882352941176;entryX=0.5000942526809652;entryY=0;" edge="1" parent="1" source="5" target="6"><mxGeometry relative="1" as="geometry"><Array as="points"/></mxGeometry></mxCell><mxCell id="14" value="" style="curved=1;startArrow=none;endArrow=block;exitX=0.5000942526809652;exitY=0.9852941176470589;entryX=0.5037687059859155;entryY=-0.014705882352941176;" edge="1" parent="1" source="6" target="7"><mxGeometry relative="1" as="geometry"><Array as="points"/></mxGeometry></mxCell><mxCell id="15" value="" style="curved=1;startArrow=none;endArrow=block;exitX=0.5037687059859155;exitY=0.9705882352941176;entryX=0.5001316713483146;entryY=0;" edge="1" parent="1" source="7" target="8"><mxGeometry relative="1" as="geometry"><Array as="points"/></mxGeometry></mxCell><mxCell id="16" value="" style="curved=1;startArrow=none;endArrow=block;exitX=0.5001316713483146;exitY=0.9852941176470589;entryX=0.500171493902439;entryY=-0.014705882352941176;" edge="1" parent="1" source="8" target="9"><mxGeometry relative="1" as="geometry"><Array as="points"/></mxGeometry></mxCell></root></mxGraphModel>